<svg width="50" height="50" viewBox="0 0 50 50" fill="none" xmlns="http://www.w3.org/2000/svg">
<path fill-rule="evenodd" clip-rule="evenodd" d="M49.3935 8.27813C49.9686 7.20735 48.6646 7.5321 48.6646 7.5321C48.6646 7.5321 39.9716 15.8767 38.7634 14.8542C37.5551 13.8317 47.2748 5.8339 46.1247 4.33938C45.0605 2.94629 36.5212 12.8918 35.4954 11.677C34.4794 10.4647 42.8076 1.76017 42.8076 1.76017C42.8076 1.76017 43.1242 0.449704 42.0616 1.02395C28.9676 8.06545 27.2997 14.63 27.2997 14.63C27.2997 14.63 26.8489 15.9086 27.8273 16.8968C27.923 16.9827 3.9379 40.832 0.727179 44.0517C-0.835234 45.6125 4.89743 51.251 6.45003 49.6903C9.66157 46.4706 33.4642 22.4478 33.5501 22.537C34.5375 23.5227 35.8128 23.0703 35.8128 23.0703C35.8128 23.0703 42.3667 21.3975 49.3935 8.27813Z" fill="black"/>
<path fill-rule="evenodd" clip-rule="evenodd" d="M25.0223 32.3784C31.4053 38.7753 42.1663 49.556 42.1663 49.556C42.1663 49.556 46.8633 48.0189 47.5251 44.0515L30.449 26.9419C28.8571 28.5338 27.0092 30.3841 25.0223 32.3784Z" fill="black"/>
<path fill-rule="evenodd" clip-rule="evenodd" d="M16.6229 26.8342C19.1579 24.3008 21.5228 21.9318 23.4836 19.9628L4.92442 1.36848C4.92442 1.36848 4.58903 1.01673 3.85036 1.75867C2.38366 3.22047 -0.454045 12.5344 11.5765 24.583C13.4833 26.4939 15.1423 26.7589 16.6229 26.8342Z" fill="black"/>
</svg>
