<svg width="50" height="44" viewBox="0 0 50 44" fill="none" xmlns="http://www.w3.org/2000/svg">
<path d="M25 0C19.0703 0 14.2637 4.8066 14.2637 10.7362C14.2637 15.5301 21.2806 24.2673 23.9689 27.4388C24.5134 28.0813 25.4874 28.0813 26.031 27.4388C28.7193 24.2673 35.7362 15.5301 35.7362 10.7362C35.7362 4.8066 30.9296 0 25 0ZM25 14.315C23.0231 14.315 21.4212 12.7131 21.4212 10.7362C21.4212 8.75942 23.0231 7.1575 25 7.1575C26.9768 7.1575 28.5787 8.75942 28.5787 10.7362C28.5787 12.7131 26.9768 14.315 25 14.315ZM2.17435 18.4007C1.66837 18.6031 1.23462 18.9524 0.929041 19.4037C0.623466 19.8549 0.460082 20.3873 0.459961 20.9323L0.459961 42.2616C0.459961 43.2262 1.43389 43.8857 2.32943 43.5278L14.0933 38.1733V18.313C13.3401 16.9513 12.724 15.6255 12.2826 14.3576L2.17435 18.4007ZM25 30.6469C23.8011 30.6469 22.667 30.1203 21.889 29.2017C20.2138 27.2249 18.4321 24.9737 16.82 22.6646V38.1725L33.18 43.6258V22.6654C31.5678 24.9737 29.787 27.2258 28.1109 29.2026C27.333 30.1203 26.1988 30.6469 25 30.6469ZM47.6705 13.7322L35.9066 19.0867V43.6267L47.8256 38.8593C48.3316 38.657 48.7654 38.3077 49.071 37.8564C49.3766 37.4052 49.54 36.8727 49.54 36.3277V14.9984C49.54 14.0338 48.566 13.3743 47.6705 13.7322Z" fill="black"/>
</svg>
