<svg width="60" height="46" viewBox="0 0 60 46" fill="none" xmlns="http://www.w3.org/2000/svg">
<path d="M24.8485 27.9604L26.2077 28.595L25.2368 30.6746L23.7217 28.9506L24.8485 27.9604ZM32.3182 11.9604L30.959 11.3259L31.9629 9.17564L33.4745 11.005L32.3182 11.9604ZM60 45.4604L43.7692 39.4139L57.1211 28.3809L60 45.4604ZM3.12675 0.970276L25.9752 26.9703L23.7217 28.9506L0.873253 2.95062L3.12675 0.970276ZM23.4893 27.3259L30.959 11.3259L33.6774 12.595L26.2077 28.595L23.4893 27.3259ZM33.4745 11.005L52.5569 34.0982L50.2443 36.0092L31.1619 12.9159L33.4745 11.005Z" fill="black"/>
</svg>
