<svg width="50" height="44" viewBox="0 0 50 44" fill="none" xmlns="http://www.w3.org/2000/svg">
<path d="M31.4147 15.7442C30.9386 14.3274 30.2123 13.8203 29.3722 13.8203C28.348 13.8203 27.1538 14.572 26.0306 15.3507C25.3623 15.8154 22.775 18.6726 21.364 18.6726C21.1938 18.6726 21.04 18.6309 20.91 18.5385C19.5325 17.5634 21.2584 13.3147 21.2584 11.2771C21.2584 9.30489 20.9002 8.55151 20.3513 8.55151C18.8339 8.55151 15.8613 14.329 15.0326 15.9961C14.7987 16.4665 14.4723 16.6522 14.0936 16.6522C12.7692 16.6522 10.7995 14.374 9.89478 14.0248C9.741 13.9659 9.60112 13.938 9.47024 13.938C7.95857 13.938 7.99129 17.6984 8.0142 18.6963C8.84038 18.4706 9.61502 18.3315 10.2923 18.3315C11.9995 18.3315 13.085 19.2158 12.802 21.8113C12.7381 22.3945 12.3692 24.253 12.9729 24.6628C13.0637 24.7258 13.1758 24.7536 13.2993 24.7536C13.9954 24.7536 15.0981 23.8956 15.5079 23.6338C16.0592 23.2804 16.6376 23.0219 17.1267 23.0219C17.7157 23.0219 18.1754 23.3958 18.3071 24.4305C18.3856 25.0432 18.0854 27.3745 18.6858 27.7467C18.775 27.8007 18.8731 27.826 18.9779 27.826C20.0862 27.826 21.9783 25.0563 22.8347 24.7389C23.2625 24.581 23.6805 24.5156 24.0912 24.5156C25.2306 24.5156 26.3145 25.0187 27.4229 25.444C27.6094 25.516 27.7615 25.5471 27.8851 25.5471C28.555 25.5471 28.3603 24.617 27.7869 24.0223C26.9517 23.152 25.6266 23.534 24.6973 22.9107C23.5169 22.1189 25.1603 20.5279 25.7983 20.0559C26.5599 19.4914 28.2482 18.5843 29.5955 18.5843C30.2196 18.5843 30.7701 18.779 31.1202 19.291C31.782 20.2587 30.681 21.4808 30.9591 22.5671C31.0761 23.0178 31.3591 23.1733 31.6945 23.1733C32.4086 23.1733 33.355 22.4681 33.4205 22.4011C33.8548 21.9454 34.3276 21.5307 34.8217 21.1471C32.335 20.5966 32.1239 17.8595 31.4147 15.7442Z" fill="black"/>
<path d="M11.0253 13.7058C11.0253 13.7058 13.1758 15.6027 14.0944 15.6027C14.2703 15.6027 14.402 15.5332 14.4633 15.3647C15.7852 11.745 18.5803 7.60839 20.4053 7.60839C21.2012 7.60839 21.8122 8.39613 22.0347 10.3593C22.3227 12.9009 20.5648 16.7528 21.4098 17.6305C21.4458 17.6682 21.494 17.6862 21.5513 17.6862C22.501 17.6862 26.2531 12.8812 29.4646 12.8812C29.7133 12.8812 29.9579 12.9107 30.1975 12.972C33.0908 13.7139 31.8368 18.6473 34.1853 20.0567C34.5894 20.3005 35.0417 20.424 35.4753 20.424C36.3407 20.424 37.1309 19.9307 37.3199 18.9107C37.7968 16.3356 29.6184 11.3442 34.043 11.3442C34.6777 11.3442 35.5718 11.4465 36.7873 11.6739C37.5113 6.7135 37.2585 5.33844 36.6107 5.33844C35.872 5.33844 34.6188 7.12414 33.7068 7.43171C33.6781 7.4407 33.652 7.44561 33.625 7.44561C33.1039 7.44561 33.1219 5.56912 32.2303 5.56912C31.6544 5.56912 30.6998 6.35195 28.9771 8.92537C28.0887 10.253 27.4237 10.7781 26.8985 10.7781C24.901 10.7781 24.9574 3.13721 22.5607 3.13721C22.0764 3.13721 21.4924 3.44886 20.7709 4.19733C19.6633 5.34744 18.6294 5.75481 17.6617 5.75481C15.305 5.75481 13.3525 3.33434 11.7516 3.33434C11.1201 3.33434 10.5418 3.71144 10.0167 4.76503C8.92954 6.9499 12.6105 6.83702 11.0253 13.7058ZM13.8416 14.689C13.4114 14.496 12.6473 13.979 11.9308 13.39C12.0633 12.7413 12.1451 12.1589 12.1925 11.6223C12.3946 11.2837 12.6433 10.9499 12.9467 10.6407C14.1827 9.38018 15.7664 8.98182 16.5427 9.70984C15.4359 11.2354 14.4617 13.1029 13.8416 14.689ZM32.0102 11.4383C31.6061 12.3945 32.3922 13.4039 33.5955 14.7234C33.5104 14.8142 33.4147 14.8943 33.3059 14.9549C33.1898 15.0203 33.0663 15.0612 32.9378 15.0849C32.555 13.7925 31.9129 12.5516 30.3971 12.163C30.1779 12.1066 29.9497 12.0779 29.7182 12.0624C29.3076 10.7274 29.4981 9.47343 30.2761 9.03989C31.1333 8.55973 32.3832 9.24521 33.2364 10.5753C32.7612 10.6661 32.2442 10.8853 32.0102 11.4383Z" fill="black"/>
<path d="M38.0937 18.9288C37.9145 20.0993 39.616 20.3087 38.8029 22.2261C38.3857 23.2069 34.8528 25.4679 35.1129 25.9628C35.4982 26.6867 35.9612 26.9681 36.4299 26.9681C37.3575 26.9681 38.3023 25.8671 38.6826 24.9133C39.1808 23.6658 39.3092 20.3914 40.5231 19.7844C40.7285 19.6805 40.9313 19.6347 41.1317 19.6347C42.3301 19.6347 43.4499 21.2552 44.5297 21.4744C44.7931 20.3014 44.605 19.0842 44.8733 17.9046C40.3154 17.8474 47.4058 11.6183 43.3542 9.07678C43.1358 8.94018 42.9526 8.87883 42.7923 8.87965C41.517 8.87965 41.8139 12.7848 38.5918 12.7848C38.335 12.7848 38.0544 12.7594 37.7493 12.7054C36.5706 12.4977 35.7567 12.4011 35.2241 12.4011C32.1206 12.4028 38.5967 15.6674 38.0937 18.9288Z" fill="black"/>
<path d="M46.1673 12.8093C46.2721 12.1598 46.2999 11.449 46.1853 10.6858C45.8925 8.72342 44.3587 7.12668 42.7669 7.12586C42.223 7.12586 40.9207 7.35245 40.3047 9.28538C39.8974 9.11524 39.4786 8.95082 39.0507 8.79458C39.4148 6.34467 39.2781 4.66532 38.6246 3.80724C38.2859 3.36225 37.7992 3.11685 37.2561 3.11685C36.4004 3.11685 35.4393 3.68945 34.245 4.91399C34.2295 4.87309 34.2155 4.83383 34.2016 4.79784C33.9481 4.11235 33.5243 2.96552 32.3873 2.96552C31.6102 2.96552 30.5812 3.44486 28.4184 6.59744C27.7967 6.55163 27.1701 6.51809 26.5345 6.49682C26.4936 6.3504 26.4544 6.20725 26.4184 6.07473C25.7435 3.59701 24.9779 0.789636 22.8208 0.788818H22.82C21.9406 0.788818 21.0155 1.30661 19.9905 2.37083C19.2273 3.16429 18.4723 3.54957 17.6813 3.54957C16.7169 3.54957 15.7296 2.9966 14.7741 2.46245C13.8081 1.92257 12.8101 1.36387 11.7778 1.36387C10.5541 1.36387 9.55939 2.11398 8.73649 3.65754C7.7966 5.42115 8.3193 6.58598 8.82483 7.71319C9.04569 8.20481 9.27718 8.72587 9.4416 9.36555C3.96345 11.7181 0.459961 15.2805 0.459961 19.2748C0.459961 30.3448 11.4473 43.3265 25 43.3265C38.5534 43.3265 49.54 30.3448 49.54 19.2748C49.54 16.9141 48.2982 14.7087 46.1673 12.8093ZM25 41.6586C14.6842 41.6586 6.01009 33.5636 3.12501 25.0867C7.18147 29.2495 15.4506 32.1019 25 32.1019C34.5493 32.1019 42.8168 29.2495 46.8733 25.0875C43.9882 33.5628 35.3149 41.6586 25 41.6586ZM34.1084 27.355C33.9113 27.975 33.2986 28.9174 32.5387 29.5808C31.3656 30.6041 29.9358 30.8241 29.2544 30.1092C28.6818 29.5055 28.7758 28.384 29.4335 27.3346C30.7799 25.1849 32.7104 24.7137 33.5481 25.139C33.5317 25.1979 33.5088 25.2544 33.4973 25.3174C33.3812 25.9709 33.5914 26.6564 34.1084 27.355ZM46.6794 16.8453C45.8786 16.8453 45.4933 19.0638 45.4361 20.4584C45.3853 21.6879 45.0303 22.0977 44.5224 22.0977C43.7911 22.0977 42.7424 21.2503 41.827 20.7709C41.5342 20.6171 41.3092 20.5492 41.1326 20.5492C40.6082 20.5492 40.5125 21.1619 40.3326 22.029C40.0291 23.4924 39.6675 25.0106 38.8741 26.2728C38.2916 27.1996 37.391 27.8442 36.4888 27.8442C35.8957 27.8442 35.3019 27.566 34.7963 26.9076C32.8086 24.3243 37.1751 23.7959 38.0454 22.0249C38.5493 21.0008 38.3882 20.6441 37.9268 20.6441C37.0188 20.6441 34.9485 22.0298 34.5215 22.4216C33.7673 23.1112 32.901 24.1272 31.8409 24.1272C31.6618 24.1272 31.4761 24.0977 31.2847 24.0331C30.1599 23.6536 30.002 22.2384 30.2401 21.1873C30.438 20.3088 30.8937 19.5194 29.719 19.4744C29.6773 19.4728 29.6356 19.4719 29.5947 19.4719C28.838 19.4719 28.065 19.7206 27.3787 20.0315C26.546 20.4094 25.3942 21.085 25.0924 22.0773C24.9983 22.3824 27.018 22.7006 27.3321 22.8216C28.9059 23.4368 29.6756 26.3988 28.029 26.3988C27.8163 26.3988 27.5636 26.3489 27.2666 26.2409C26.2343 25.8556 25.1963 25.3108 24.1157 25.3108C23.7607 25.3108 23.4016 25.3697 23.0376 25.5129C22.2834 25.809 21.8711 26.654 21.2772 27.1832C20.3987 27.9718 19.6216 28.3955 19.0114 28.3955C18.1705 28.3955 17.647 27.5906 17.6134 25.8229C17.584 24.3865 17.3083 23.921 16.8625 23.921C16.0674 23.921 14.7324 25.4057 13.2985 25.5153C13.2568 25.5178 13.2167 25.5194 13.1782 25.5194C11.2649 25.5194 12.0093 21.8818 12.1582 20.7603C12.321 19.5374 11.5831 19.103 10.4469 19.103C9.17002 19.103 7.39415 19.6511 5.83013 20.2458C5.90539 20.3128 5.98391 20.3717 6.0559 20.4454C7.4874 21.8736 7.95775 23.7574 7.10948 24.6499C6.25958 25.5407 4.41172 25.1047 2.98186 23.6748C1.55199 22.245 1.08 20.3611 1.92991 19.4695C2.65547 18.703 3.7835 18.9607 4.74301 19.4719C5.997 19.0507 7.26899 18.6834 7.23955 18.0912C7.01623 13.6118 8.28659 12.7758 9.26737 12.7766C9.8506 12.7766 10.3316 13.0735 10.3316 13.0735C11.2167 7.3729 7.8964 6.98599 9.45633 4.05836C10.195 2.67349 10.9664 2.20069 11.7794 2.20069C13.5275 2.20069 15.467 4.38556 17.683 4.38556C18.5983 4.38556 19.5611 4.01174 20.5762 2.95734C21.4867 2.01173 22.2196 1.62481 22.8224 1.62481C25.5194 1.62563 25.5914 9.37127 27.1333 9.37127C27.4294 9.37127 27.7803 9.08579 28.2131 8.40522C30.4748 4.85346 31.6781 3.80069 32.3881 3.80069C33.4237 3.80069 33.4098 6.04038 34.0945 6.04038C34.2352 6.04038 34.407 5.94467 34.6229 5.71481C35.7591 4.50499 36.6336 3.95121 37.2569 3.95121C38.7268 3.95121 38.7996 7.0277 37.6021 11.8204C37.6021 11.8204 37.8696 11.8883 38.2614 11.8883C39.0966 11.8883 40.4929 11.5815 41.0393 9.66412C41.3837 8.45675 42.0536 7.96104 42.7686 7.96104C43.8974 7.96104 45.1367 9.19622 45.378 10.8118C45.8172 13.7623 43.8712 15.8523 44.0234 16.7423C44.0495 16.9001 44.1273 16.9623 44.2434 16.9623C44.6794 16.9623 45.6586 16.0748 46.5134 16.0748C47.1506 16.0748 47.7199 16.5697 47.9391 18.2989C47.4385 17.2511 47.0213 16.8453 46.6794 16.8453Z" fill="black"/>
</svg>
