<svg width="50" height="50" viewBox="0 0 50 50" fill="none" xmlns="http://www.w3.org/2000/svg">
<path fill-rule="evenodd" clip-rule="evenodd" d="M5.36796 47.335H34.816C36.1713 47.335 37.27 46.2363 37.27 44.881V5.61698C37.27 4.26168 36.1713 3.16298 34.816 3.16298H5.36796C4.01265 3.16298 2.91396 4.26168 2.91396 5.61698V44.881C2.91396 46.2363 4.01265 47.335 5.36796 47.335ZM34.816 49.789H5.36796C2.65735 49.789 0.459961 47.5915 0.459961 44.881V5.61698C0.459961 2.90637 2.65735 0.708984 5.36796 0.708984H34.816C37.5265 0.708984 39.724 2.90637 39.724 5.61698V44.881C39.724 47.5915 37.5265 49.789 34.816 49.789Z" fill="#333333"/>
<path fill-rule="evenodd" clip-rule="evenodd" d="M17.6379 11.7519C17.6379 11.0742 18.1873 10.5249 18.8649 10.5249H33.5889C34.2666 10.5249 34.8159 11.0742 34.8159 11.7519C34.8159 12.4296 34.2666 12.9789 33.5889 12.9789H18.8649C18.1873 12.9789 17.6379 12.4296 17.6379 11.7519Z" fill="#333333"/>
<path fill-rule="evenodd" clip-rule="evenodd" d="M17.6379 16.6601C17.6379 15.9824 18.1873 15.4331 18.8649 15.4331H33.5889C34.2666 15.4331 34.8159 15.9824 34.8159 16.6601C34.8159 17.3378 34.2666 17.8871 33.5889 17.8871H18.8649C18.1873 17.8871 17.6379 17.3378 17.6379 16.6601Z" fill="#333333"/>
<path fill-rule="evenodd" clip-rule="evenodd" d="M17.6379 26.476C17.6379 25.7984 18.1873 25.249 18.8649 25.249H33.5889C34.2666 25.249 34.8159 25.7984 34.8159 26.476C34.8159 27.1537 34.2666 27.703 33.5889 27.703H18.8649C18.1873 27.703 17.6379 27.1537 17.6379 26.476Z" fill="#333333"/>
<path fill-rule="evenodd" clip-rule="evenodd" d="M17.6379 31.384C17.6379 30.7063 18.1873 30.157 18.8649 30.157H33.5889C34.2666 30.157 34.8159 30.7063 34.8159 31.384C34.8159 32.0617 34.2666 32.611 33.5889 32.611H18.8649C18.1873 32.611 17.6379 32.0617 17.6379 31.384Z" fill="#333333"/>
<path fill-rule="evenodd" clip-rule="evenodd" d="M7.82198 27.703V31.384H11.503V27.703H7.82198ZM6.59498 25.249H12.73C13.4077 25.249 13.957 25.7984 13.957 26.476V32.611C13.957 33.2887 13.4077 33.838 12.73 33.838H6.59498C5.91733 33.838 5.36798 33.2887 5.36798 32.611V26.476C5.36798 25.7984 5.91733 25.249 6.59498 25.249Z" fill="#333333"/>
<path fill-rule="evenodd" clip-rule="evenodd" d="M14.8246 10.8843C15.3037 11.3634 15.3037 12.1403 14.8246 12.6195L9.04898 18.3951L5.72736 15.0735C5.24819 14.5943 5.24819 13.8174 5.72736 13.3383C6.20654 12.8591 6.98343 12.8591 7.46261 13.3383L9.04898 14.9246L13.0894 10.8843C13.5685 10.4051 14.3454 10.4051 14.8246 10.8843Z" fill="#333333"/>
<path fill-rule="evenodd" clip-rule="evenodd" d="M47.086 25.2489H44.632V44.0629L45.859 45.699L47.086 44.0629V25.2489ZM49.54 44.8809L45.859 49.7889L42.178 44.8809V22.7949H49.54V44.8809Z" fill="#333333"/>
<path fill-rule="evenodd" clip-rule="evenodd" d="M47.086 16.6601H44.632V19.1141H47.086V16.6601ZM44.632 14.2061H47.086C48.4413 14.2061 49.54 15.3047 49.54 16.6601V21.5681H42.178V16.6601C42.178 15.3047 43.2766 14.2061 44.632 14.2061Z" fill="#333333"/>
</svg>
