<svg width="50" height="34" viewBox="0 0 50 34" fill="none" xmlns="http://www.w3.org/2000/svg">
<path d="M40.3974 0.0791016C38.7446 1.66124 36.7569 2.90544 34.5542 3.69805C32.2563 4.10356 25.897 1.15434 22.7635 4.16501C22.2412 4.68726 21.5961 5.20952 20.9202 5.73178C19.4456 5.08664 17.1722 4.10356 15.5133 3.15121C13.8544 2.19886 9.67629 0.0791016 9.67629 0.0791016L0.459961 10.8315C0.459961 10.8315 2.73332 13.9036 4.14649 15.9312C5.06812 17.2829 6.2048 19.3412 6.94211 20.7237L5.89759 21.9525C5.71941 22.3058 5.61189 22.7205 5.61189 23.1598C5.61189 23.8818 5.89452 24.5392 6.35841 25.0246C6.78236 25.341 7.31383 25.5315 7.89446 25.5315C8.47509 25.5315 9.00657 25.341 9.43666 25.0185C9.14788 25.3533 8.97892 25.7834 8.97892 26.2535C8.97892 26.8464 9.24926 27.3748 9.67321 27.725C10.1156 27.9861 10.6471 28.1397 11.2123 28.1397C11.7776 28.1397 12.3091 27.9861 12.7638 27.7189C12.4197 28.1459 12.22 28.6804 12.22 29.2641C12.22 29.8478 12.4197 30.3824 12.7545 30.8063C13.0587 30.9139 13.412 30.9784 13.7806 30.9784C14.4165 30.9784 15.0064 30.7848 15.4949 30.4561C15.3628 30.748 15.2952 31.0797 15.2952 31.43C15.2952 32.1488 15.5901 32.7971 16.0693 33.2579C16.4687 33.4391 16.9387 33.5436 17.4303 33.5436C18.1246 33.5436 18.7728 33.3347 19.3073 32.9752L20.8926 31.5406C22.3426 32.9845 24.3425 33.8784 26.5514 33.8784C26.6128 33.8784 26.6773 33.8784 26.7388 33.8754C28.2564 33.7463 29.5282 32.7817 30.0997 31.4453C30.5482 31.6174 31.0582 31.7341 31.5989 31.7341C32.3239 31.7341 32.9967 31.5252 33.565 31.1658C35.3622 29.9769 34.9321 29.0552 34.9321 29.0552C35.3161 29.2242 35.7616 29.3225 36.2316 29.3225C37.2177 29.3225 38.1056 28.8863 38.7077 28.1981C39.2484 27.6421 39.5771 26.8863 39.5771 26.0569C39.5771 25.4732 39.4143 24.9294 39.1317 24.4655C39.1562 24.4809 39.1777 24.4809 39.1962 24.4809C40.4895 24.4809 41.6139 23.7681 42.2007 22.7175C42.4096 22.1921 42.5233 21.6023 42.5233 20.9879C42.5233 19.9372 42.1853 18.9634 41.6139 18.1707L41.6231 18.1861C44.1423 17.6946 44.0501 16.435 45.2789 14.5917C46.4586 13.0741 47.8964 11.8207 49.54 10.8806L40.3974 0.0791016ZM40.2438 21.7682C38.892 23.1199 37.8475 22.5362 35.5434 20.7851C33.2394 19.034 28.6619 15.7469 28.6619 15.7469C28.8493 16.6838 29.2825 17.498 29.8938 18.1462C30.8738 19.2491 33.7923 21.7682 35.1748 23.0585C36.035 23.8572 38.2469 25.4547 36.9566 26.6836C35.6663 27.9124 34.6525 26.6836 32.5328 24.9632C30.413 23.2428 25.682 19.0033 25.682 19.0033C25.6789 19.0586 25.6758 19.12 25.6758 19.1845C25.6758 19.9771 25.9953 20.6929 26.5114 21.2152C27.0337 21.8296 29.9522 24.656 31.181 25.9463C32.4099 27.2365 33.4851 28.0046 32.4406 29.0184C31.3961 30.0322 29.2763 28.4347 28.1089 27.2365C26.2964 25.4854 22.702 22.229 22.702 22.229C22.699 22.2782 22.699 22.3335 22.699 22.3918C22.699 23.2643 23 24.063 23.5069 24.6959C24.3917 25.8572 26.1121 27.3625 27.1566 28.5299C28.2011 29.6973 28.8155 30.6804 27.1566 31.602C25.4976 32.5236 23.04 30.2503 21.9647 29.1443V29.1382C21.9647 28.8217 21.848 28.533 21.6575 28.3118C21.169 27.8602 20.5085 27.5806 19.7866 27.5806C19.4671 27.5806 19.1599 27.6359 18.8742 27.7342C19.2674 27.384 19.5009 26.8925 19.5009 26.3456C19.5009 25.7988 19.2674 25.3073 18.8926 24.9632C18.5055 24.6713 18.0201 24.4962 17.4948 24.4962C16.9695 24.4962 16.481 24.6713 16.0908 24.9662C16.4503 24.6191 16.6715 24.1429 16.6715 23.6115C16.6715 22.9571 16.3366 22.3826 15.8297 22.0477C15.3597 21.7498 14.7975 21.5777 14.1954 21.5777C13.4458 21.5777 12.7576 21.8481 12.2231 22.2935C12.5149 21.9433 12.687 21.4948 12.687 21.0032C12.687 20.4042 12.4258 19.8666 12.0142 19.4948C11.4673 18.9879 10.7331 18.6776 9.9282 18.6776C9.35986 18.6776 8.82838 18.8313 8.37064 19.1016L6.32769 15.6516C4.91452 13.409 3.25558 11.0742 3.25558 11.0742L10.26 2.56444C10.26 2.56444 12.7484 4.10049 14.8067 5.26789C15.8205 5.85159 17.5716 6.61962 18.8926 7.23404C16.8036 8.80082 15.0525 10.3062 15.5747 11.3507C16.4872 12.0081 17.6269 12.4044 18.8588 12.4044C20.0139 12.4044 21.0892 12.0573 21.9862 11.4613C23.1321 10.6902 24.5668 10.2232 26.1121 10.2232C27.1781 10.2232 28.1919 10.4444 29.1104 10.8468C30.8124 11.9958 33.9459 14.8221 36.803 16.604C40.3974 19.2153 41.104 20.9049 40.2438 21.7651V21.7682Z" fill="#444444"/>
</svg>
