<svg width="50" height="50" viewBox="0 0 50 50" fill="none" xmlns="http://www.w3.org/2000/svg">
<path fill-rule="evenodd" clip-rule="evenodd" d="M5.36796 46.625H34.816C36.1713 46.625 37.27 45.5264 37.27 44.171V4.90702C37.27 3.55172 36.1713 2.45302 34.816 2.45302H5.36796C4.01265 2.45302 2.91396 3.55172 2.91396 4.90702V44.171C2.91396 45.5264 4.01265 46.625 5.36796 46.625ZM34.816 49.079H5.36796C2.65735 49.079 0.459961 46.8816 0.459961 44.171V4.90702C0.459961 2.19641 2.65735 -0.000976562 5.36796 -0.000976562H34.816C37.5265 -0.000976562 39.724 2.19641 39.724 4.90702V44.171C39.724 46.8816 37.5265 49.079 34.816 49.079Z" fill="#333333"/>
<path fill-rule="evenodd" clip-rule="evenodd" d="M17.6379 30.6743C17.6379 29.9966 18.1873 29.4473 18.8649 29.4473H33.5889C34.2666 29.4473 34.8159 29.9966 34.8159 30.6743C34.8159 31.3519 34.2666 31.9013 33.5889 31.9013H18.8649C18.1873 31.9013 17.6379 31.3519 17.6379 30.6743Z" fill="#333333"/>
<path fill-rule="evenodd" clip-rule="evenodd" d="M7.82198 26.9931V30.6741H11.503V26.9931H7.82198ZM6.59498 24.5391H12.73C13.4077 24.5391 13.957 25.0884 13.957 25.7661V31.9011C13.957 32.5787 13.4077 33.1281 12.73 33.1281H6.59498C5.91733 33.1281 5.36798 32.5787 5.36798 31.9011V25.7661C5.36798 25.0884 5.91733 24.5391 6.59498 24.5391Z" fill="#333333"/>
<path fill-rule="evenodd" clip-rule="evenodd" d="M47.086 24.539H44.632V43.3529L45.859 44.989L47.086 43.3529V24.539ZM49.54 44.171L45.859 49.079L42.178 44.171V22.085H49.54V44.171Z" fill="#333333"/>
</svg>
