<svg width="100" height="99" viewBox="0 0 100 99" fill="none" xmlns="http://www.w3.org/2000/svg">
<path d="M3.37599 98.4945C2.73793 98.4945 2.10969 98.2441 1.63851 97.7779C0.966089 97.1055 0.740314 96.0993 1.06916 95.206C8.6228 74.4396 16.5642 63.9067 24.6675 63.9067C27.3425 63.9067 29.8407 65.0552 32.1034 67.313C35.6765 70.8861 35.8041 74.4445 35.2839 76.8004C33.6445 84.2019 23.1902 91.4513 4.21528 98.3521C3.94043 98.4503 3.65575 98.4945 3.37599 98.4945ZM24.6724 68.81C22.2429 68.81 19.3815 70.9401 16.4022 74.9697C13.4721 78.9306 10.5272 84.575 7.62645 91.7899C14.1788 89.1543 19.4453 86.4793 23.3276 83.8142C28.5646 80.2165 30.1156 77.4336 30.4935 75.7354C30.8714 74.0372 30.2628 72.4126 28.6333 70.7831C27.3081 69.4579 26.0124 68.8149 24.6675 68.8149L24.6724 68.81Z" fill="black"/>
<path d="M96.6309 0.331568C83.8942 0.331568 72.5466 2.49115 62.8922 6.75143C54.9361 10.2657 48.1236 15.1934 42.6412 21.4072C41.6203 22.5655 40.6731 23.7385 39.7945 24.9165C35.5637 25.1962 31.2347 26.8797 26.9155 29.9228C23.2589 32.4947 19.5877 36.058 15.9949 40.5097C9.95786 47.9897 6.2473 55.3666 6.09024 55.6759C5.55525 56.7507 5.87428 58.0563 6.8461 58.7582C7.27801 59.0723 7.78355 59.2244 8.28418 59.2244C8.91243 59.2244 9.54067 58.9839 10.0168 58.5128C10.0413 58.4882 12.3874 56.1814 16.3875 53.9187C19.6858 52.0536 24.7707 49.8597 30.9206 49.472C32.4764 53.4525 36.9281 58.2134 39.0632 60.3484C41.1982 62.4835 45.9591 66.9352 49.9396 68.491C49.5519 74.6409 47.358 79.7258 45.4929 83.0241C43.2253 87.0291 40.9234 89.3703 40.9037 89.3899C40.0546 90.239 39.9467 91.5839 40.6485 92.5606C41.1246 93.2183 41.8706 93.5815 42.6412 93.5815C43.0142 93.5815 43.3873 93.498 43.7357 93.3214C44.045 93.1643 51.4219 89.4537 58.9019 83.4167C63.3536 79.8239 66.9169 76.1527 69.4888 72.4961C72.5319 68.172 74.2104 63.8479 74.4951 59.6171C75.6682 58.7435 76.8412 57.7962 78.0044 56.7704C84.2182 51.288 89.1459 44.4755 92.6602 36.5193C96.9204 26.8699 99.08 15.5174 99.08 2.78073V0.32666H96.626L96.6309 0.331568ZM16.1716 48.4707C20.849 41.6827 28.0002 33.2652 36.0594 30.6198C32.874 36.2003 31.2249 41.3244 30.631 44.5736C24.9424 44.9221 20.0392 46.5761 16.1716 48.4707ZM50.9507 83.2302C52.8453 79.3626 54.4993 74.4642 54.8429 68.7806C58.0872 68.1867 63.2162 66.5376 68.7918 63.3571C66.1414 71.4016 57.7338 78.5527 50.9507 83.2302ZM74.7601 53.0942C64.5512 62.1006 53.979 64.1375 52.4575 64.1375C52.4477 64.1375 51.4415 64.1179 48.7322 62.2086C46.8426 60.8785 44.6388 58.9839 42.5382 56.8833C40.4375 54.7826 38.5429 52.5788 37.2128 50.6892C35.3035 47.9799 35.2839 46.9737 35.2839 46.9639C35.2839 45.4424 37.3208 34.8702 46.3272 24.6613C57.1055 12.4498 73.6018 5.7698 94.1523 5.27407C93.6565 25.8245 86.9814 42.3208 74.7651 53.0991L74.7601 53.0942Z" fill="black"/>
</svg>
