<svg width="50" height="50" viewBox="0 0 50 50" fill="none" xmlns="http://www.w3.org/2000/svg">
<path fill-rule="evenodd" clip-rule="evenodd" d="M49.3935 8.02642C49.9686 6.95564 48.6646 7.28039 48.6646 7.28039C48.6646 7.28039 39.9716 15.625 38.7634 14.6025C37.5551 13.5799 47.2748 5.58219 46.1247 4.08767C45.0605 2.69458 36.5212 12.64 35.4954 11.4253C34.4794 10.213 42.8076 1.50846 42.8076 1.50846C42.8076 1.50846 43.1242 0.197995 42.0616 0.772244C28.9676 7.81374 27.2997 14.3783 27.2997 14.3783C27.2997 14.3783 26.8489 15.6569 27.8273 16.6451C27.923 16.7309 3.9379 40.5803 0.727179 43.8C-0.835234 45.3607 4.89743 50.9993 6.45003 49.4386C9.66157 46.2188 33.4642 22.1961 33.5501 22.2853C34.5375 23.271 35.8128 22.8186 35.8128 22.8186C35.8128 22.8186 42.3667 21.1458 49.3935 8.02642Z" fill="black"/>
</svg>
