<svg width="68" height="46" viewBox="0 0 68 46" fill="none" xmlns="http://www.w3.org/2000/svg">
<path d="M28 17.999L29.3247 17.2953L28.3733 15.5044L26.9393 16.9384L28 17.999ZM36.5 33.999L35.1753 34.7028L36.158 36.5525L37.5928 35.0266L36.5 33.999ZM68 0.499023L51.4155 5.49432L64.0338 17.3593L68 0.499023ZM3.06066 45.0597L29.0607 19.0597L26.9393 16.9384L0.93934 42.9384L3.06066 45.0597ZM26.6753 18.7028L35.1753 34.7028L37.8247 33.2953L29.3247 17.2953L26.6753 18.7028ZM37.5928 35.0266L59.8449 11.3616L57.6594 9.30649L35.4072 32.9715L37.5928 35.0266Z" fill="black"/>
</svg>
