<svg width="202" height="303" viewBox="0 0 202 303" fill="none" xmlns="http://www.w3.org/2000/svg">
<path d="M1.09998 11.499C1.09998 5.97618 5.57713 1.49902 11.1 1.49902H190.9C196.423 1.49902 200.9 5.97618 200.9 11.499V291.499C200.9 297.022 196.423 301.499 190.9 301.499H11.1C5.57713 301.499 1.09998 297.022 1.09998 291.499V11.499Z" fill="#D9D9D9"/>
<path d="M75.083 158.602C72.6146 158.602 70.6136 156.601 70.6136 154.132V146.114C70.6136 145.299 71.2745 144.638 72.0898 144.638C72.905 144.638 73.5659 145.299 73.5659 146.114V153.174C73.5659 154.828 74.906 156.168 76.5591 156.168H78.3352C79.0074 156.168 79.5523 156.713 79.5523 157.385C79.5523 158.057 79.0074 158.602 78.3352 158.602H75.083Z" fill="black"/>
<path d="M82.9051 158.602C82.103 158.602 81.4528 157.952 81.4528 157.149V149.581C81.4528 148.779 82.103 148.129 82.9051 148.129C83.7072 148.129 84.3574 148.779 84.3574 149.581V157.149C84.3574 157.952 83.7072 158.602 82.9051 158.602ZM82.9119 146.779C82.4801 146.779 82.1097 146.636 81.8006 146.349C81.496 146.059 81.3437 145.711 81.3437 145.306C81.3437 144.906 81.496 144.563 81.8006 144.277C82.1097 143.986 82.4801 143.84 82.9119 143.84C83.3437 143.84 83.7119 143.986 84.0165 144.277C84.3256 144.563 84.4801 144.906 84.4801 145.306C84.4801 145.711 84.3256 146.059 84.0165 146.349C83.7119 146.636 83.3437 146.779 82.9119 146.779Z" fill="black"/>
<path d="M94.4425 148.129C95.4226 148.129 96.1094 149.097 95.7859 150.022L93.3264 157.057C93.003 157.982 92.13 158.602 91.15 158.602C90.17 158.602 89.297 157.982 88.9736 157.057L86.5128 150.018C86.1899 149.095 86.8754 148.129 87.8537 148.129C88.4857 148.129 89.0416 148.547 89.2178 149.154L91.0802 155.57C91.0893 155.601 91.1177 155.622 91.15 155.622C91.1823 155.622 91.2107 155.601 91.2197 155.57L93.0754 149.157C93.2515 148.548 93.8088 148.129 94.4425 148.129Z" fill="black"/>
<path d="M99.3864 158.602C98.5843 158.602 97.9341 157.952 97.9341 157.149V149.537C97.9341 148.759 98.5645 148.129 99.342 148.129H99.8364C100.341 148.129 100.75 148.538 100.75 149.043V149.894C100.75 149.928 100.778 149.956 100.812 149.956C100.84 149.956 100.864 149.938 100.873 149.912C101.065 149.284 101.381 148.808 101.82 148.484C102.27 148.147 102.789 147.979 103.375 147.979C103.52 147.979 103.677 147.988 103.845 148.006C104.108 148.035 104.289 148.267 104.289 148.531V150.082C104.289 150.369 104.008 150.587 103.723 150.549C103.482 150.518 103.261 150.502 103.061 150.502C102.634 150.502 102.252 150.595 101.916 150.781C101.584 150.963 101.32 151.218 101.125 151.545C100.934 151.872 100.839 152.249 100.839 152.677V157.149C100.839 157.952 100.188 158.602 99.3864 158.602Z" fill="black"/>
<path d="M110.035 158.806C108.976 158.806 108.06 158.581 107.287 158.131C106.519 157.677 105.926 157.045 105.507 156.236C105.089 155.422 104.88 154.479 104.88 153.406C104.88 152.324 105.089 151.379 105.507 150.57C105.926 149.756 106.519 149.124 107.287 148.674C108.06 148.22 108.976 147.993 110.035 147.993C111.094 147.993 112.007 148.22 112.776 148.674C113.548 149.124 114.144 149.756 114.562 150.57C114.98 151.379 115.189 152.324 115.189 153.406C115.189 154.479 114.98 155.422 114.562 156.236C114.144 157.045 113.548 157.677 112.776 158.131C112.007 158.581 111.094 158.806 110.035 158.806ZM110.048 156.556C110.53 156.556 110.932 156.42 111.255 156.147C111.578 155.87 111.821 155.493 111.985 155.015C112.153 154.538 112.237 153.995 112.237 153.386C112.237 152.777 112.153 152.234 111.985 151.756C111.821 151.279 111.578 150.902 111.255 150.624C110.932 150.347 110.53 150.209 110.048 150.209C109.562 150.209 109.153 150.347 108.821 150.624C108.494 150.902 108.246 151.279 108.078 151.756C107.914 152.234 107.832 152.777 107.832 153.386C107.832 153.995 107.914 154.538 108.078 155.015C108.246 155.493 108.494 155.87 108.821 156.147C109.153 156.42 109.562 156.556 110.048 156.556Z" fill="black"/>
<path d="M122.975 158.602C122.157 158.602 121.494 157.939 121.494 157.121C121.494 156.709 121.666 156.315 121.969 156.035L126.465 151.872C126.887 151.463 127.242 151.095 127.528 150.768C127.819 150.44 128.04 150.12 128.19 149.806C128.34 149.488 128.415 149.145 128.415 148.777C128.415 148.368 128.322 148.015 128.135 147.72C127.949 147.42 127.694 147.19 127.372 147.031C127.049 146.868 126.683 146.786 126.274 146.786C125.847 146.786 125.474 146.872 125.156 147.045C124.837 147.218 124.592 147.465 124.419 147.788C124.108 148.369 123.626 148.94 122.967 148.94H122.759C121.985 148.94 121.328 148.3 121.542 147.556C121.644 147.199 121.79 146.868 121.978 146.561C122.392 145.888 122.972 145.368 123.717 144.999C124.462 144.631 125.322 144.447 126.294 144.447C127.294 144.447 128.165 144.624 128.906 144.979C129.651 145.329 130.231 145.815 130.644 146.438C131.058 147.061 131.265 147.774 131.265 148.579C131.265 149.106 131.16 149.627 130.951 150.14C130.747 150.654 130.381 151.224 129.853 151.852C129.326 152.474 128.583 153.222 127.624 154.095L125.605 156.073C125.592 156.086 125.585 156.103 125.585 156.121C125.585 156.158 125.615 156.188 125.652 156.188H130.242C130.909 156.188 131.449 156.728 131.449 157.395C131.449 158.061 130.909 158.602 130.242 158.602H122.975Z" fill="black"/>
<path d="M11.1 0.999023C5.30099 0.999023 0.599976 5.70004 0.599976 11.499V291.499C0.599976 297.298 5.30099 301.999 11.1 301.999H190.9C196.699 301.999 201.4 297.298 201.4 291.499V11.499C201.4 5.70003 196.699 0.999023 190.9 0.999023H11.1Z" stroke="black"/>
</svg>
