<svg width="200" height="301" viewBox="0 0 200 301" fill="none" xmlns="http://www.w3.org/2000/svg">
<path d="M0.0999756 10.499C0.0999756 4.97618 4.57713 0.499023 10.1 0.499023H189.9C195.423 0.499023 199.9 4.97618 199.9 10.499V290.499C199.9 296.022 195.423 300.499 189.9 300.499H10.1C4.57713 300.499 0.0999756 296.022 0.0999756 290.499V10.499Z" fill="#D9D9D9"/>
<path d="M73.2232 157.699C70.6411 157.699 68.548 155.606 68.548 153.024V145.939C68.548 144.958 69.3431 144.163 70.324 144.163C71.3048 144.163 72.1 144.958 72.1 145.939V151.862C72.1 153.463 73.398 154.761 74.9992 154.761H76.4296C77.2408 154.761 77.8984 155.419 77.8984 156.23C77.8984 157.041 77.2408 157.699 76.4296 157.699H73.2232Z" fill="black"/>
<path d="M81.1648 157.699C80.221 157.699 79.456 156.934 79.456 155.99V149.654C79.456 148.71 80.221 147.945 81.1648 147.945C82.1085 147.945 82.8736 148.71 82.8736 149.654V155.99C82.8736 156.934 82.1085 157.699 81.1648 157.699ZM80.9152 146.563C80.0669 146.563 79.3792 145.875 79.3792 145.027C79.3792 144.179 80.0669 143.491 80.9152 143.491H81.4336C82.2819 143.491 82.9696 144.179 82.9696 145.027C82.9696 145.875 82.2819 146.563 81.4336 146.563H80.9152Z" fill="black"/>
<path d="M89.2714 157.699C88.3954 157.699 87.6028 157.179 87.2533 156.376L84.5741 150.218C84.1074 149.145 84.8937 147.945 86.0636 147.945C86.7341 147.945 87.3357 148.357 87.578 148.983L89.5674 154.115C89.627 154.269 89.5135 154.435 89.3485 154.435C89.1819 154.435 89.0684 154.266 89.1309 154.112L91.2448 148.897C91.4779 148.322 92.0365 147.945 92.6571 147.945C93.7569 147.945 94.4946 149.075 94.0525 150.082L91.2866 156.383C90.9355 157.183 90.1448 157.699 89.2714 157.699Z" fill="black"/>
<path d="M97.4402 157.699C96.4859 157.699 95.7122 156.925 95.7122 155.971V150.614C95.7122 150.166 95.6994 149.718 95.6738 149.27C95.6334 148.563 96.1807 147.945 96.8886 147.945H97.5348C98.2918 147.945 98.9298 148.51 99.0214 149.262L99.1953 150.69C99.2115 150.823 99.1076 150.941 98.9735 150.941C98.8346 150.941 98.7291 150.815 98.7577 150.679C98.8865 150.066 99.0746 149.552 99.3218 149.136C99.6034 148.662 99.9554 148.31 100.378 148.08C100.8 147.849 101.299 147.734 101.875 147.734C102.144 147.734 102.343 147.747 102.471 147.773C102.747 147.798 102.912 148.069 102.912 148.346V150.068C102.912 150.452 102.521 150.69 102.144 150.614C101.952 150.576 101.703 150.557 101.395 150.557C100.871 150.557 100.442 150.653 100.109 150.845C99.7762 151.024 99.533 151.305 99.3794 151.689C99.2386 152.073 99.1682 152.566 99.1682 153.168V155.971C99.1682 156.925 98.3946 157.699 97.4402 157.699Z" fill="black"/>
<path d="M108.652 157.91C107.564 157.91 106.623 157.705 105.829 157.296C105.036 156.886 104.421 156.304 103.986 155.549C103.551 154.781 103.333 153.872 103.333 152.822C103.333 151.76 103.551 150.851 103.986 150.096C104.421 149.341 105.036 148.758 105.829 148.349C106.623 147.939 107.564 147.734 108.652 147.734C109.727 147.734 110.661 147.939 111.455 148.349C112.248 148.758 112.863 149.347 113.298 150.115C113.733 150.87 113.951 151.773 113.951 152.822C113.951 153.859 113.733 154.761 113.298 155.529C112.863 156.297 112.248 156.886 111.455 157.296C110.661 157.705 109.727 157.91 108.652 157.91ZM108.652 155.376C109.215 155.376 109.663 155.177 109.996 154.781C110.328 154.371 110.495 153.718 110.495 152.822C110.495 151.926 110.328 151.28 109.996 150.883C109.663 150.473 109.215 150.269 108.652 150.269C108.076 150.269 107.621 150.473 107.288 150.883C106.956 151.28 106.789 151.926 106.789 152.822C106.789 153.718 106.956 154.371 107.288 154.781C107.621 155.177 108.076 155.376 108.652 155.376Z" fill="black"/>
<path d="M125.495 157.91C124.535 157.91 123.607 157.782 122.711 157.526C122.242 157.384 121.822 157.216 121.45 157.023C120.899 156.736 120.74 156.06 120.977 155.486C121.324 154.643 122.369 154.356 123.231 154.655C123.3 154.679 123.37 154.702 123.44 154.723C124.068 154.915 124.714 155.011 125.38 155.011C126.071 155.011 126.589 154.896 126.935 154.665C127.28 154.422 127.453 154.064 127.453 153.59C127.453 153.142 127.293 152.809 126.973 152.592C126.666 152.374 126.205 152.265 125.591 152.265H124.592C123.829 152.265 123.21 151.647 123.21 150.883C123.21 150.12 123.829 149.501 124.592 149.501H125.245C125.796 149.501 126.231 149.385 126.551 149.155C126.871 148.912 127.031 148.573 127.031 148.137C127.031 147.715 126.877 147.395 126.57 147.177C126.263 146.96 125.815 146.851 125.226 146.851C124.598 146.851 124 146.953 123.432 147.157C122.589 147.46 121.544 147.207 121.199 146.38C120.968 145.828 121.121 145.175 121.647 144.888C122.036 144.676 122.467 144.499 122.941 144.355C123.786 144.086 124.663 143.952 125.572 143.952C127.082 143.952 128.266 144.285 129.124 144.95C129.981 145.603 130.41 146.512 130.41 147.677C130.41 148.457 130.186 149.129 129.738 149.693C129.329 150.222 128.772 150.582 128.068 150.772C128 150.791 127.933 150.738 127.933 150.667C127.933 150.599 127.994 150.547 128.061 150.559C128.896 150.715 129.558 151.085 130.045 151.67C130.557 152.272 130.813 153.027 130.813 153.936C130.813 155.165 130.34 156.137 129.392 156.854C128.445 157.558 127.146 157.91 125.495 157.91Z" fill="black"/>
</svg>
