<svg width="200" height="300" viewBox="0 0 200 300" fill="none" xmlns="http://www.w3.org/2000/svg">
<path d="M0 10C0 4.47716 4.47715 0 10 0H190C195.523 0 200 4.47715 200 10V290C200 295.523 195.523 300 190 300H10C4.47716 300 0 295.523 0 290V10Z" fill="#D9D9D9"/>
<path d="M72.2496 156.738C69.1976 156.738 66.7234 154.263 66.7234 151.211V142.837C66.7234 141.677 67.6633 140.738 68.8227 140.738C69.9821 140.738 70.922 141.677 70.922 142.837V149.838C70.922 151.731 72.4563 153.265 74.3489 153.265H76.0397C76.9986 153.265 77.7759 154.043 77.7759 155.001C77.7759 155.96 76.9986 156.738 76.0397 156.738H72.2496Z" fill="black"/>
<path d="M81.6369 156.738C80.5214 156.738 79.617 155.833 79.617 154.718V147.228C79.617 146.113 80.5214 145.209 81.6369 145.209C82.7524 145.209 83.6567 146.113 83.6567 147.228V154.718C83.6567 155.833 82.7524 156.738 81.6369 156.738ZM81.3419 143.574C80.3391 143.574 79.5262 142.762 79.5262 141.759C79.5262 140.756 80.3391 139.943 81.3419 139.943H81.9546C82.9573 139.943 83.7702 140.756 83.7702 141.759C83.7702 142.762 82.9573 143.574 81.9546 143.574H81.3419Z" fill="black"/>
<path d="M91.2192 156.738C90.1837 156.738 89.2468 156.123 88.8338 155.174L85.6669 147.894C85.1152 146.626 86.0446 145.209 87.4274 145.209C88.22 145.209 88.9311 145.696 89.2176 146.435L91.569 152.502C91.6395 152.684 91.5053 152.879 91.3103 152.879C91.1134 152.879 90.9792 152.68 91.0531 152.498L93.5518 146.333C93.8273 145.653 94.4876 145.209 95.2212 145.209C96.5212 145.209 97.3932 146.544 96.8707 147.734L93.6012 155.182C93.1862 156.127 92.2516 156.738 91.2192 156.738Z" fill="black"/>
<path d="M100.875 156.738C99.7469 156.738 98.8325 155.823 98.8325 154.695V148.363C98.8325 147.834 98.8173 147.304 98.7871 146.774C98.7393 145.939 99.3862 145.209 100.223 145.209H100.987C101.882 145.209 102.636 145.876 102.744 146.765L102.95 148.453C102.969 148.61 102.846 148.749 102.687 148.749C102.523 148.749 102.399 148.601 102.432 148.44C102.585 147.715 102.807 147.107 103.099 146.616C103.432 146.056 103.848 145.64 104.347 145.367C104.847 145.095 105.437 144.959 106.118 144.959C106.435 144.959 106.67 144.974 106.821 145.004C107.148 145.034 107.343 145.354 107.343 145.682V147.717C107.343 148.171 106.88 148.452 106.435 148.363C106.208 148.318 105.913 148.295 105.55 148.295C104.93 148.295 104.423 148.409 104.03 148.635C103.636 148.847 103.349 149.18 103.167 149.634C103.001 150.088 102.918 150.67 102.918 151.382V154.695C102.918 155.823 102.003 156.738 100.875 156.738Z" fill="black"/>
<path d="M114.127 156.987C112.841 156.987 111.729 156.745 110.791 156.261C109.853 155.777 109.127 155.088 108.612 154.196C108.098 153.288 107.841 152.214 107.841 150.973C107.841 149.717 108.098 148.643 108.612 147.75C109.127 146.858 109.853 146.169 110.791 145.685C111.729 145.201 112.841 144.959 114.127 144.959C115.398 144.959 116.503 145.201 117.441 145.685C118.379 146.169 119.105 146.865 119.619 147.773C120.134 148.666 120.391 149.732 120.391 150.973C120.391 152.199 120.134 153.265 119.619 154.173C119.105 155.081 118.379 155.777 117.441 156.261C116.503 156.745 115.398 156.987 114.127 156.987ZM114.127 153.992C114.793 153.992 115.322 153.757 115.716 153.288C116.109 152.804 116.306 152.032 116.306 150.973C116.306 149.914 116.109 149.15 115.716 148.681C115.322 148.197 114.793 147.955 114.127 147.955C113.446 147.955 112.909 148.197 112.516 148.681C112.122 149.15 111.926 149.914 111.926 150.973C111.926 152.032 112.122 152.804 112.516 153.288C112.909 153.757 113.446 153.992 114.127 153.992Z" fill="black"/>
<path d="M131.449 156.738C130.509 156.738 129.747 155.976 129.747 155.035C129.747 154.095 130.509 153.333 131.449 153.333H131.54C132.53 153.333 133.333 152.531 133.333 151.54V144.609C133.333 144.388 133.511 144.21 133.732 144.21C134.141 144.21 134.285 144.753 133.929 144.955L131.729 146.207C131.017 146.612 130.133 146.097 130.133 145.278V144.23C130.133 143.628 130.455 143.072 130.977 142.773L133.994 141.048C134.349 140.844 134.751 140.738 135.16 140.738C136.457 140.738 137.509 141.789 137.509 143.086V151.665C137.509 152.587 138.256 153.333 139.177 153.333C140.098 153.333 140.845 154.08 140.845 155.001V155.035C140.845 155.976 140.083 156.738 139.143 156.738H131.449Z" fill="black"/>
</svg>
